<?xml version="1.0" encoding="UTF-8"?>
<svg width="194px" height="43px" viewBox="0 0 194 43" version="1.1" xmlns="http://www.w3.org/2000/svg" xmlns:xlink="http://www.w3.org/1999/xlink">
    <!-- Generator: Sketch 62 (91390) - https://sketch.com -->
    <title>Group 77</title>
    <desc>Created with Sketch.</desc>
    <g id="Page-1" stroke="none" stroke-width="1" fill="none" fill-rule="evenodd">
        <g id="Group-77" transform="translate(0.000000, 0.431642)">
            <polygon id="Fill-1" fill="#374D62" points="162.846715 10.1421287 187.455173 37.633932 194 37.633932 169.390765 10.1421287"></polygon>
            <path d="M14.002654,31.9579909 C9.03922661,31.9579909 5.01529113,27.9363182 5.01529113,22.9756818 C5.01529113,18.0150455 9.03922661,13.9933727 14.002654,13.9933727 C18.9660815,13.9933727 22.9900169,18.0150455 22.9900169,22.9756818 C22.9900169,27.9363182 18.9660815,31.9579909 14.002654,31.9579909 M14.002654,8.98113636 C6.26925081,8.98113636 0.000234677419,15.2466273 0.000234677419,22.9756818 C0.000234677419,30.7047364 6.26925081,36.9702273 14.002654,36.9702273 C21.7360573,36.9702273 28.0050734,30.7047364 28.0050734,22.9756818 C28.0050734,15.2466273 21.7360573,8.98113636 14.002654,8.98113636" id="Fill-2" fill="#009EE2"></path>
            <path d="M57.2732589,22.8853818 L52.2550734,22.8853818 C52.2558556,22.9158727 52.2597669,22.9448 52.2597669,22.9752909 C52.2597669,27.9367091 48.2358315,31.9576 43.2731863,31.9576 C40.0753153,31.9576 37.2865653,30.2743455 35.6938879,27.7600182 L32.1056702,31.3907818 C34.660525,34.7737091 38.7047992,36.9706182 43.2731863,36.9706182 C51.0065895,36.9706182 57.2756056,30.7051273 57.2756056,22.9752909 C57.2756056,22.9455818 57.2732589,22.9158727 57.2732589,22.8853818" id="Fill-4" fill="#374D62"></path>
            <polygon id="Fill-6" fill="#009EE2" points="-1.82076576e-14 42.5683582 5.01583871 42.5683582 5.01583871 22.9752127 -1.82076576e-14 22.9752127"></polygon>
            <path d="M150.409295,31.9579909 C155.372723,31.9579909 159.395876,27.9363182 159.395876,22.9756818 C159.395876,18.0150455 155.372723,13.9933727 150.409295,13.9933727 C145.445085,13.9933727 141.421932,18.0150455 141.421932,22.9756818 C141.421932,27.9363182 145.445085,31.9579909 150.409295,31.9579909 M150.409295,8.98113636 C158.142698,8.98113636 164.411715,15.2466273 164.411715,22.9756818 C164.411715,30.7047364 158.142698,36.9702273 150.409295,36.9702273 C142.67511,36.9702273 136.406876,30.7047364 136.406876,22.9756818 C136.406876,15.2466273 142.67511,8.98113636 150.409295,8.98113636" id="Fill-8" fill="#374D62"></path>
            <polygon id="Fill-9" fill="#374D62" points="159.396032 36.97054 164.411871 36.97054 164.411871 22.9759945 159.396032 22.9759945"></polygon>
            <path d="M72.5429363,14.5789545 C67.5795089,14.5789545 63.5555734,18.6006273 63.5555734,23.5612636 C63.5555734,28.5211182 67.5795089,32.5427909 72.5429363,32.5427909 C77.5063637,32.5427909 81.5302992,28.5211182 81.5302992,23.5612636 C81.5302992,18.6006273 77.5063637,14.5789545 72.5429363,14.5789545 M72.5429363,37.5558091 C64.8095331,37.5558091 58.5405169,31.2903182 58.5405169,23.5612636 C58.5405169,15.8322091 64.8095331,9.56593636 72.5429363,9.56593636 C80.2763395,9.56593636 86.5453556,15.8322091 86.5453556,23.5612636 C86.5453556,31.2903182 80.2763395,37.5558091 72.5429363,37.5558091" id="Fill-10" fill="#374D62"></path>
            <polygon id="Fill-11" fill="#374D62" points="63.5557298 -2.30926389e-14 58.5398911 4.99581818 58.5398911 23.5608727 63.5557298 23.5608727"></polygon>
            <polygon id="Fill-12" fill="#009EE2" points="29.26975 22.8853036 34.2855887 22.8853036 34.2855887 9.50995818 29.26975 9.50995818"></polygon>
            <polygon id="Fill-13" fill="#374D62" points="57.2755274 5.96746182 52.2596887 11.5089891 52.2596887 22.8852255 57.2755274 22.8852255"></polygon>
            <path d="M90.915675,23.5946473 C90.915675,23.5649382 90.9109815,23.5352291 90.9109815,23.5047382 C90.9109815,18.5441018 94.9349169,14.5224291 99.8975621,14.5224291 C104.861772,14.5224291 108.885707,18.5441018 108.885707,23.5047382 C108.885707,23.5352291 108.881014,23.5649382 108.881014,23.5946473 L113.898417,23.5946473 C113.898417,23.5649382 113.900764,23.5352291 113.900764,23.5047382 C113.900764,15.7756836 107.631748,9.51019273 99.8975621,9.51019273 C92.1649411,9.51019273 85.895925,15.7756836 85.895925,23.5047382 C85.895925,23.5352291 85.8974895,23.5649382 85.8974895,23.5946473 L90.915675,23.5946473 Z" id="Fill-14" fill="#374D62"></path>
            <polygon id="Fill-15" fill="#374D62" points="108.885629 36.97054 113.900685 36.97054 113.900685 23.5951945 108.885629 23.5951945"></polygon>
            <polygon id="Fill-16" fill="#374D62" points="85.8958468 36.97054 90.9116855 36.97054 90.9116855 23.5951945 85.8958468 23.5951945"></polygon>
            <polygon id="Fill-17" fill="#374D62" points="162.644281 36.9703055 169.223853 36.9703055 193.966676 9.50972364 187.386321 9.50972364"></polygon>
            <path d="M113.905223,23.5946473 C113.905223,23.5649382 113.900529,23.5352291 113.900529,23.5047382 C113.900529,18.5441018 117.924465,14.5224291 122.887892,14.5224291 C127.851319,14.5224291 131.875255,18.5441018 131.875255,23.5047382 C131.875255,23.5352291 131.870561,23.5649382 131.870561,23.5946473 L136.888747,23.5946473 C136.888747,23.5649382 136.891094,23.5352291 136.891094,23.5047382 C136.891094,15.7756836 130.621295,9.51019273 122.887892,9.51019273 C115.154489,9.51019273 108.885473,15.7756836 108.885473,23.5047382 C108.885473,23.5352291 108.887037,23.5649382 108.887819,23.5946473 L113.905223,23.5946473 Z" id="Fill-18" fill="#374D62"></path>
            <polygon id="Fill-19" fill="#374D62" points="131.874629 36.97054 136.890468 36.97054 136.890468 23.5951945 131.874629 23.5951945"></polygon>
            <polygon id="Fill-20" fill="#374D62" points="108.885629 36.97054 113.900685 36.97054 113.900685 23.5951945 108.885629 23.5951945"></polygon>
            <path d="M34.2902823,22.8855382 L29.2720968,22.8855382 C29.2720968,22.9160291 29.26975,22.9457382 29.26975,22.9754473 C29.26975,25.6867927 30.0621774,28.2034655 31.3998387,30.3456473 L35.1492016,26.7430291 C34.6110081,25.59532 34.2855887,24.3272109 34.2855887,22.9754473 C34.2855887,22.9449564 34.2895,22.9160291 34.2902823,22.8855382 Z" id="Fill-21" fill="#009EE2"></path>
        </g>
    </g>
</svg>